<svg width="37" height="36" viewBox="0 0 37 36" fill="none" xmlns="http://www.w3.org/2000/svg">
<rect x="0.160645" width="36" height="36" rx="4" fill="#EFF2FC"/>
<path d="M24.1606 11.25H12.1606C11.7459 11.25 11.4106 11.586 11.4106 12V24C11.4106 24.414 11.7459 24.75 12.1606 24.75H18.6219V19.53H16.8684V17.4862H18.6219V15.9862C18.6219 14.2425 19.6869 13.2923 21.2469 13.2923C21.7711 13.2908 22.2961 13.3177 22.8181 13.3725V15.1875H21.7419C20.8959 15.1875 20.7309 15.591 20.7309 16.1812V17.4825H22.7536L22.4911 19.5262H20.7301V24.75H24.1606C24.5754 24.75 24.9106 24.414 24.9106 24V12C24.9106 11.586 24.5754 11.25 24.1606 11.25Z" fill="#33354D"/>
</svg>
